<svg width="330" height="330" viewBox="0 0 330 330" fill="none" xmlns="http://www.w3.org/2000/svg">
<path d="M165 330C256.127 330 330 256.127 330 165C330 73.873 256.127 0 165 0C73.873 0 0 73.873 0 165C0 256.127 73.873 330 165 330Z" fill="#8247E5"/>
<path d="M217.49 126.225C213.675 123.956 208.725 123.956 204.6 126.225L174.9 143.447L154.687 154.687L125.09 171.909C121.275 174.178 116.325 174.178 112.2 171.909L88.481 158.503C84.6654 156.234 82.0873 152.109 82.0873 147.572V121.069C82.0873 116.531 84.356 112.509 88.5841 110.24L111.787 97.1436C115.603 94.8748 120.553 94.8748 124.678 97.1436L147.881 110.24C151.697 112.406 154.378 116.531 154.378 121.069V138.29L174.59 126.637V109.415C174.59 104.878 172.322 100.856 168.094 98.5873L125.09 73.8373C121.275 71.5686 116.325 71.5686 112.2 73.8373L68.4748 98.5873C64.1435 100.856 61.8748 104.981 61.8748 109.415V159.225C61.8748 163.762 64.1435 167.784 68.3716 170.053L112.097 194.803C115.912 197.072 120.862 197.072 124.987 194.803L154.687 177.89L174.9 166.237L204.6 149.428C208.415 147.159 213.365 147.159 217.49 149.428L240.694 162.525C244.509 164.794 247.19 168.919 247.19 173.353V199.959C247.19 204.497 244.922 208.519 240.694 210.787L217.49 224.297C213.675 226.565 208.725 226.565 204.6 224.297L181.397 211.2C177.581 208.931 174.9 204.806 174.9 200.372V183.15L154.687 194.803V212.025C154.687 216.562 156.956 220.584 161.184 222.853L204.909 247.603C208.725 249.872 213.675 249.872 217.8 247.603L261.525 222.853C265.34 220.584 268.022 216.459 268.022 212.025V162.215C268.022 157.678 265.753 153.656 261.525 151.387L217.49 126.225Z" fill="white"/>
</svg>
